<svg xmlns="http://www.w3.org/2000/svg" version="1.1" xmlns:xlink="http://www.w3.org/1999/xlink" xmlns:svgjs="http://svgjs.dev/svgjs" width="100%" height="100%" viewBox="0 0 1000 600"><rect width="1000" height="600" x="0" y="0" fill="#262223"/><g><rect width="333.3333333333333" height="333.3333333333333" y="184.13003500157205" fill="#ddc6b6" transform="matrix(0.7720443529652393,0,0,0.7720443529652392,0,29.169406960184105)" x="161.90780639648438"/><path d="M312.3609376885479 355.96874425328025L312.3609376885479 355.96874425328025Q310.7167029098358 357.1550908657687 309.1349074265179 358.3622505767219Q307.5531119431999 359.5694102876751 306.2210736414585 361.0679533771342L306.2210736414585 361.0679533771342Q305.6174937859819 361.2136450663872 305.38854970287 360.7557569001636Q305.1596056197583 360.3186818324047 305.3052973090112 359.8607936661811L305.3052973090112 359.8607936661811Q307.40742025394695 357.7586707212453 310.92483389448296 355.1362203146919Q314.4630606334837 352.5137699081384 317.8972218801608 350.8695351294263L317.8972218801608 350.8695351294263Q319.3957649696199 350.8695351294263 319.10438159111396 352.2223865296325L319.10438159111396 352.2223865296325Q313.8594807780071 373.05629809280725 307.4906726478058 387.1259526549513Q301.1218645176045 401.2164203155599 293.9205324488148 409.83304307994996Q286.74001347848986 418.4496658443399 279.01835394808245 422.1335842725935Q271.296694417675 425.7966896023825 263.3460908041558 425.7966896023825L263.3460908041558 425.7966896023825Q258.10118999104884 425.7966896023825 256.0198801445778 421.75894850022877Q253.9177571996421 417.7003942996103 255.5619919783542 411.1026420862972L255.5619919783542 411.1026420862972Q255.8533753568601 410.8112587077913 256.31126352308377 410.72800631393244Q256.76915168930736 410.6655670185383 256.91484337856036 411.2691468740149L256.91484337856036 411.2691468740149Q256.4569552123367 413.51696150820356 256.8315909847015 415.45257966542164Q257.2062267570663 417.4090109211043 258.55907815727244 418.96999330595764Q259.91192955747863 420.5517887892756 262.22218348706144 421.44675202325817Q264.5532505151089 422.34171525724065 268.1539165495038 422.34171525724065L268.1539165495038 422.34171525724065Q274.14808890734025 422.34171525724065 279.91331718206493 419.42788147218124Q285.6785454567896 416.51404768712183 291.29808204226134 409.08377153522036Q296.9176186277331 401.6743084817836 302.16251944084 388.79100053212807Q307.40742025394695 375.8868794840078 312.3609376885479 355.96874425328025ZM319.70796144659056 344.4174746053662L319.70796144659056 344.4174746053662Q318.7921851141433 345.1667461500958 318.27185765252557 343.46007207598956Q317.75153019090783 341.7325849034186 318.64649342489037 340.52542519246543L318.64649342489037 340.52542519246543Q320.7486163698261 337.52833901354717 323.37106677637956 334.76019691774076Q325.99351718293303 331.99205482193435 329.4484915280749 328.9949686430161L329.4484915280749 328.9949686430161Q329.8855665958338 328.68277216604537 330.3434547620574 329.0574079384102Q330.7805298298163 329.43204371077496 330.4891464513104 329.74424018774556L330.4891464513104 329.74424018774556Q327.34636858313917 332.59563467741094 324.5782264873327 336.55012338570583Q321.7892712930616 340.52542519246543 319.70796144659056 344.4174746053662ZM341.7282196222538 369.4556320584124L341.7282196222538 369.4556320584124Q343.3724544009659 377.3854225734669 345.93246551212525 381.6729208571972Q348.47166352481986 385.9396060424628 352.2180212484677 385.9396060424628L352.2180212484677 385.9396060424628Q353.8622560271798 385.9396060424628 355.29835982124473 385.1903344977332Q356.71365051684506 384.4410629530036 358.35788529555714 382.33894000806794L358.35788529555714 382.33894000806794Q358.8157734617808 382.04755662956194 359.10715684028673 382.4221924019268Q359.41935331725733 382.79682817429153 359.2528485295397 383.2339032420504L359.2528485295397 383.2339032420504Q357.17153868306866 385.9396060424628 354.7572192611623 387.500588427316Q352.3637129377206 389.08238391063395 349.07524338029646 389.08238391063395L349.07524338029646 389.08238391063395Q344.2674176349484 389.08238391063395 341.43683624374785 383.98317478678Q338.5854417540826 378.8839656629261 336.7747021876528 369.1434355814418L336.7747021876528 369.1434355814418Q336.62901049839985 367.9570889689533 337.5239737323824 367.6448924919826L337.5239737323824 367.6448924919826Q340.22967653279466 368.2484723474592 342.935379333207 367.72814488584146Q345.6202690351546 367.2078174242237 347.7223919800903 366.0006577132705Q349.82451492502605 364.81431110078205 351.09411393137333 362.85787984509926Q352.3637129377206 360.9014485894166 352.3637129377206 358.5079422659749L352.3637129377206 358.5079422659749Q352.3637129377206 354.76158454232706 348.61735521407286 354.76158454232706L348.61735521407286 354.76158454232706Q343.51814609021886 354.76158454232706 339.0225168218415 359.77754127232225Q334.5268875534641 364.81431110078205 332.27907291927545 374.55484118226633L332.27907291927545 374.55484118226633Q331.69630616226357 377.094039194961 331.0094739129281 380.1743777677381Q330.3434547620574 383.2339032420504 329.8855665958338 385.3360261869862L329.8855665958338 385.3360261869862Q329.59418321732784 386.5431858979394 329.2819867403572 387.1259526549513Q328.99060336185124 387.7295325104279 327.94994843861576 388.18742067665147L327.94994843861576 388.18742067665147Q326.139208872186 389.08238391063395 324.78635747197984 389.08238391063395L324.78635747197984 389.08238391063395Q323.60001085949136 389.08238391063395 324.03708592725025 387.7295325104279L324.03708592725025 387.7295325104279Q328.6992199833453 362.7121881558464 336.7122628922587 342.10722067578337Q344.72530580117206 321.50225319572047 354.3201441934034 306.745766384241Q363.91498258563473 291.96846647429686 374.09258773487795 283.89298426998937Q384.2910059825859 275.79668896721716 393.28226451934063 275.79668896721716L393.28226451934063 275.79668896721716Q396.5707340767648 275.79668896721716 398.75610941555937 277.0662879735645Q400.9206716558892 278.3358869799118 401.75319559447763 280.2923182355945Q402.5649064346013 282.2279363928126 402.19027066223657 284.64225581471896Q401.8156348898717 287.0357621381606 400.02570842190664 289.4292684616022L400.02570842190664 289.4292684616022Q398.96424040020645 290.1785400063318 398.67285702170057 288.9713802953786L398.67285702170057 288.9713802953786Q399.42212856643005 285.9742941164603 397.25756632610023 283.1437127252598Q395.07219098730565 280.2923182355945 389.82729017419877 280.2923182355945L389.82729017419877 280.2923182355945Q383.22953796088564 280.2923182355945 375.8200749074489 285.22502257173085Q368.4106118540121 290.1785400063318 360.91789640671647 300.52264994329266Q353.42518095942086 310.86675988025354 346.452792973743 326.80959330422144Q339.4804049880651 342.7732398266541 333.94412079645224 364.81431110078205L333.94412079645224 364.81431110078205Q337.23259035387645 358.3622505767219 341.58252793300085 354.5326404592153Q345.93246551212525 350.7238434401733 351.9266378699617 350.7238434401733L351.9266378699617 350.7238434401733Q354.4658358826564 350.7238434401733 356.0476313659743 352.5137699081384Q357.60861375082754 354.3245094745682 357.60861375082754 356.57232410875685L357.60861375082754 356.57232410875685Q357.60861375082754 361.3593367556402 353.05054518705606 364.96000279003505Q348.47166352481986 368.5606688244299 341.7282196222538 369.4556320584124Z " fill="#262223" transform="matrix(0.7720443529652393,0,0,0.7720443529652392,0,29.169406960184105)"/><path d="M636.0950456597393 355.96874425328025L636.0950456597393 355.96874425328025Q634.4508108810272 357.1550908657687 632.8690153977093 358.3622505767219Q631.2872199143912 359.5694102876751 629.9551816126498 361.0679533771342L629.9551816126498 361.0679533771342Q629.3516017571733 361.2136450663872 629.1226576740614 360.7557569001636Q628.8937135909496 360.3186818324047 629.0394052802026 359.8607936661811L629.0394052802026 359.8607936661811Q631.1415282251382 357.7586707212453 634.6589418656743 355.1362203146919Q638.197168604675 352.5137699081384 641.6313298513521 350.8695351294263L641.6313298513521 350.8695351294263Q643.1298729408113 350.8695351294263 642.8384895623053 352.2223865296325L642.8384895623053 352.2223865296325Q637.5935887491985 373.05629809280725 631.2247806189971 387.1259526549513Q624.8559724887959 401.2164203155599 617.6546404200062 409.83304307994996Q610.4741214496812 418.4496658443399 602.7524619192739 422.1335842725935Q595.0308023888664 425.7966896023825 587.0801987753471 425.7966896023825L587.0801987753471 425.7966896023825Q581.8352979622402 425.7966896023825 579.7539881157692 421.75894850022877Q577.6518651708334 417.7003942996103 579.2960999495456 411.1026420862972L579.2960999495456 411.1026420862972Q579.5874833280516 410.8112587077913 580.0453714942751 410.72800631393244Q580.5032596604988 410.6655670185383 580.6489513497518 411.2691468740149L580.6489513497518 411.2691468740149Q580.1910631835281 413.51696150820356 580.5656989558929 415.45257966542164Q580.9403347282577 417.4090109211043 582.2931861284638 418.96999330595764Q583.6460375286699 420.5517887892756 585.9562914582527 421.44675202325817Q588.2873584863003 422.34171525724065 591.8880245206951 422.34171525724065L591.8880245206951 422.34171525724065Q597.8821968785317 422.34171525724065 603.6474251532563 419.42788147218124Q609.412653427981 416.51404768712183 615.0321900134527 409.08377153522036Q620.6517265989244 401.6743084817836 625.8966274120314 388.79100053212807Q631.1415282251382 375.8868794840078 636.0950456597393 355.96874425328025ZM643.442069417782 344.4174746053662L643.442069417782 344.4174746053662Q642.5262930853347 345.1667461500958 642.005965623717 343.46007207598956Q641.4856381620992 341.7325849034186 642.3806013960817 340.52542519246543L642.3806013960817 340.52542519246543Q644.4827243410175 337.52833901354717 647.1051747475709 334.76019691774076Q649.7276251541243 331.99205482193435 653.1825994992662 328.9949686430161L653.1825994992662 328.9949686430161Q653.6196745670252 328.68277216604537 654.0775627332488 329.0574079384102Q654.5146378010077 329.43204371077496 654.2232544225018 329.74424018774556L654.2232544225018 329.74424018774556Q651.0804765543305 332.59563467741094 648.3123344585241 336.55012338570583Q645.523379264253 340.52542519246543 643.442069417782 344.4174746053662ZM668.1680303938575 350.7238434401733L668.1680303938575 350.7238434401733Q672.2057714960113 350.7238434401733 674.1622027516939 353.408733142121Q676.097820908912 356.11443594253325 676.097820908912 360.4643735216577L676.097820908912 360.4643735216577Q676.097820908912 365.56358264551164 674.1622027516939 370.64197867090087Q672.2057714960113 375.7411877947548 669.208685317093 379.8621812907674Q666.2115991381747 383.98317478678 662.6941854976387 386.5431858979394Q659.1767718571027 389.08238391063395 656.1796856781846 389.08238391063395L656.1796856781846 389.08238391063395Q652.5790196437897 389.08238391063395 650.4768966988539 386.2309894209687Q648.3747737539182 383.3795949313034 648.3747737539182 378.1346941181965L648.3747737539182 378.1346941181965Q648.3747737539182 373.95126132678973 650.0190085326303 369.1434355814418Q651.6840564098071 364.35642293455845 654.4521985056135 360.23542943854585Q657.22034060142 356.11443594253325 660.737754241956 353.408733142121Q664.2551678824921 350.7238434401733 668.1680303938575 350.7238434401733ZM659.1767718571027 384.4410629530036L659.1767718571027 384.4410629530036Q661.4245864912914 384.4410629530036 663.5891487316213 382.8592674696857Q665.7537109719511 381.29828508483246 667.4187588491279 378.67583467827893Q669.06299362784 376.0533842717255 670.0412092556815 372.59840992658366Q670.9986117850581 369.1434355814418 670.9986117850581 365.39707785779393L670.9986117850581 365.39707785779393Q670.9986117850581 360.9014485894166 669.5000686955989 358.27899818286306Q668.0015256061398 355.65654777630965 664.5673643594627 355.65654777630965L664.5673643594627 355.65654777630965Q662.319549725274 355.65654777630965 660.2174267803382 357.2383432596276Q658.1153038354025 358.8201387429455 656.5543214505493 361.44258914949904Q654.9725259672314 364.06503955605245 654.0775627332488 367.58245319658846Q653.1825994992662 371.09986683712447 653.1825994992662 374.9919162500253L653.1825994992662 374.9919162500253Q653.1825994992662 384.4410629530036 659.1767718571027 384.4410629530036ZM681.488413411272 387.7295325104279L681.488413411272 387.7295325104279Q688.231857313838 361.9629166111168 696.6403490935809 341.27469673719503Q705.028027774859 320.6072899617379 714.2482303947255 306.0589341349056Q723.4476199161275 291.531391406538 733.0424583083587 283.6640401868775Q742.6372967005901 275.79668896721716 751.6285552373448 275.79668896721716L751.6285552373448 275.79668896721716Q754.917024794769 275.79668896721716 757.1024001335636 277.0662879735645Q759.2669623738934 278.3358869799118 760.0994863124818 280.2923182355945Q760.9111971526055 282.2279363928126 760.5365613802408 284.64225581471896Q760.1619256078759 287.0357621381606 758.3719991399108 289.28357677234925L758.3719991399108 289.28357677234925Q758.0806157614049 289.7206518401082 757.6227275951813 289.5749601508552Q757.1648394289577 289.4292684616022 757.1648394289577 288.8256886061256L757.1648394289577 288.8256886061256Q757.7684192844342 285.8286024272074 755.3749129609926 283.1437127252598Q752.981406637551 280.4380099248475 747.7365058244441 280.4380099248475L747.7365058244441 280.4380099248475Q740.6808654449073 280.4380099248475 733.3546547853293 285.9742941164603Q726.0076310272867 291.531391406538 718.6606072692441 302.9994086605932Q711.3135835112014 314.44661281618374 704.1955038362706 331.84636313268135Q697.0774241613398 349.22530035071424 690.4796719480266 373.05629809280725L690.4796719480266 373.05629809280725Q692.893991369933 368.3941640367122 696.0367692381043 364.2731705406996Q699.1795471062754 360.152177044687 702.4680166636997 357.1550908657687Q705.7772993195886 354.15800468685046 709.1490212708716 352.45133061274424Q712.5207432221546 350.7238434401733 715.6635210903258 350.7238434401733L715.6635210903258 350.7238434401733Q717.4534475582909 350.7238434401733 718.3692238907381 351.6188066741559Q719.2641871247207 352.5137699081384 719.2641871247207 353.7209296190916L719.2641871247207 353.7209296190916Q719.2641871247207 355.65654777630965 717.9113357245145 358.07086719821604L717.9113357245145 358.07086719821604Q714.7685578563433 363.60715138982886 712.7496873052664 369.4556320584124Q710.7100036557249 375.3041127269959 710.7100036557249 380.09112537387927L710.7100036557249 380.09112537387927Q710.7100036557249 382.19324831881494 711.2511442158072 383.54609971902113Q711.7714716774251 384.8781380207625 712.9578182899135 384.8781380207625L712.9578182899135 384.8781380207625Q714.4563613793727 384.8781380207625 716.1838485519436 383.3171556359093Q717.9113357245145 381.73536015259134 719.2641871247207 379.79974199537327L719.2641871247207 379.79974199537327Q719.7012621924796 379.48754551840267 720.1591503587032 379.8621812907674Q720.6170385249268 380.23681706313215 720.4505337372091 380.84039691860875L720.4505337372091 380.84039691860875Q719.5555705032266 382.19324831881494 718.2027191030204 383.60853901441527Q716.870680801279 385.0446428084802 715.2888853179611 386.31424181482754Q713.707089834643 387.5838408211749 712.062855055931 388.33311236590447Q710.4186202772189 389.08238391063395 709.0657688770127 389.08238391063395L709.0657688770127 389.08238391063395Q705.319411153365 389.08238391063395 705.319411153365 382.79682817429153L705.319411153365 382.79682817429153Q705.319411153365 377.3854225734669 707.1301507197948 371.0166144432656Q708.9200771877597 364.64780631306434 711.4592752004544 359.7151019769281L711.4592752004544 359.7151019769281Q712.3750515329016 358.2165588874689 712.3750515329016 357.1550908657687L712.3750515329016 357.1550908657687Q712.3750515329016 355.82305256402725 710.7100036557249 355.82305256402725L710.7100036557249 355.82305256402725Q708.0251139537772 355.82305256402725 704.8823360856061 357.9043624104983Q701.7187451189701 360.006485355434 698.430275561546 364.06503955605245Q695.1418060041217 368.1027806582062 692.1447198252034 373.8680089329309Q689.1476336462853 379.63323720765555 686.7333142243789 386.8345692764453L686.7333142243789 386.8345692764453Q686.4419308458729 387.87522419968076 685.1723318395256 388.47880405515735Q683.9027328331783 389.08238391063395 682.6955731222251 389.08238391063395L682.6955731222251 389.08238391063395Q681.051338343513 389.08238391063395 681.488413411272 387.7295325104279ZM763.6168999530178 379.48754551840267L763.6168999530178 379.48754551840267Q764.0747881192415 379.19616213989667 764.5118631870004 379.48754551840267Q764.969751353224 379.79974199537327 764.824059663971 380.38250875238515L764.824059663971 380.38250875238515Q762.2640485528117 383.837483097527 759.2045230784993 386.45993350408054Q756.1241845057222 389.08238391063395 753.4184817053099 389.08238391063395L753.4184817053099 389.08238391063395Q748.7771607476795 389.08238391063395 748.7771607476795 383.08821155279753L748.7771607476795 383.08821155279753Q748.7771607476795 377.9890024289435 750.5879003141093 371.7658859879952Q752.3778267820744 365.56358264551164 755.5206046502456 359.2572138107045L755.5206046502456 359.2572138107045Q756.1241845057222 358.2165588874689 756.1241845057222 357.1550908657687L756.1241845057222 357.1550908657687Q756.1241845057222 355.51085608705665 754.6256414162631 355.51085608705665L754.6256414162631 355.51085608705665Q749.0893572246501 355.51085608705665 742.4083526174783 363.14926322360526Q735.748161108771 370.8084834586186 730.0453721294405 387.1259526549513L730.0453721294405 387.1259526549513Q729.7539887509346 388.04172898739847 728.4011373507284 388.5620564490162Q727.0482859505222 389.08238391063395 725.8619393380338 389.08238391063395L725.8619393380338 389.08238391063395Q724.1968914608569 389.08238391063395 724.6547796270806 387.7295325104279L724.6547796270806 387.7295325104279Q727.1939776397752 381.29828508483246 729.9829328340463 373.20198978206025Q732.7510749298528 365.10569447928805 734.8531978747885 357.1550908657687L734.8531978747885 357.1550908657687Q735.4359646318004 354.3245094745682 733.7917298530883 354.3245094745682L733.7917298530883 354.3245094745682Q732.2931867636291 354.3245094745682 730.7946436741701 355.82305256402725Q729.2961005847109 357.32159565348644 727.6518658059988 359.7151019769281L727.6518658059988 359.7151019769281Q727.3604824274929 360.006485355434 726.9858466551281 359.5694102876751Q726.6112108827633 359.1115221214515 726.7569025720163 358.6536339552279L726.7569025720163 358.6536339552279Q728.4011373507284 356.11443594253325 731.2525318403937 353.408733142121Q734.1039263300589 350.7238434401733 737.3923958874832 350.7238434401733L737.3923958874832 350.7238434401733Q741.1387536111309 350.7238434401733 739.9315939001777 355.82305256402725L739.9315939001777 355.82305256402725Q739.3488271431659 359.1115221214515 738.2873591214657 362.7746274512405Q737.2467041982302 366.4585458794941 736.039544487277 370.059211913889L736.039544487277 370.059211913889Q738.1416674322127 366.0006577132705 740.993061921878 362.39999167887567Q743.8444564115432 358.8201387429455 746.9039818858556 356.26012763178625Q749.9843204586327 353.7209296190916 753.043845932945 352.2223865296325Q756.1241845057222 350.7238434401733 758.8298873061344 350.7238434401733L758.8298873061344 350.7238434401733Q760.6198137740996 350.7238434401733 761.598029401941 351.6188066741559Q762.5762450297823 352.5137699081384 762.5762450297823 353.7209296190916L762.5762450297823 353.7209296190916Q762.5762450297823 355.65654777630965 761.6604686973351 357.6129790319923L761.6604686973351 357.6129790319923Q758.5176908291638 363.315768011323 756.353128588834 369.51807135380653Q754.1677532500395 375.7411877947548 754.1677532500395 380.98608860786175L754.1677532500395 380.98608860786175Q754.1677532500395 384.7324463315096 756.5820726719458 384.7324463315096L756.5820726719458 384.7324463315096Q759.724850540117 384.7324463315096 763.6168999530178 379.48754551840267ZM856.9844596657072 280.1466265463415L856.9844596657072 280.1466265463415Q859.8150410569076 280.1466265463415 861.7714723125905 281.33297315883Q863.7279035682732 282.5401328697832 864.6853060976498 284.47575102700125Q865.6635217254911 286.432182282684 865.6635217254911 288.7632493107315Q865.6635217254911 291.0735032403143 864.6228668022557 293.32131787450305L864.6228668022557 293.32131787450305Q864.310670325285 293.77920604072665 863.8735952575262 293.63351435147365Q863.4157070913025 293.467009563756 863.1243237127966 293.02993449599705L863.1243237127966 293.02993449599705Q862.812127235826 290.0328483170788 860.3561816169902 287.70178128903126Q857.8794228996896 285.39152735944845 852.6345220865827 285.39152735944845L852.6345220865827 285.39152735944845Q846.9317331072521 285.39152735944845 841.7700846880041 288.3886135383667Q836.5876231702912 291.385699717285 831.2802830617902 298.8784151645806Q825.9521298548244 306.3711306118762 820.4782849586056 319.1087468722788Q815.0252531608517 331.84636313268135 808.7188843260444 351.3274232956499L808.7188843260444 351.3274232956499Q812.1738586711864 351.1609185079323 815.9826556902283 351.1609185079323Q819.8122658077349 351.1609185079323 823.8500069098886 351.1609185079323L823.8500069098886 351.1609185079323Q824.5992784546182 351.4731149849029 824.5368391592242 351.99344244652065Q824.4535867653653 352.5137699081384 823.1007353651592 352.8259663851091L823.1007353651592 352.8259663851091Q819.3543776415113 352.971658074362 815.6080199178635 353.117349763615Q811.8616621942157 353.263041452868 807.9696127813149 353.5752379298386L807.9696127813149 353.5752379298386Q807.532537713556 355.21947270855077 806.9289578580795 356.57232410875685L806.9289578580795 356.57232410875685Q800.7890938109899 376.1990759609784 794.3370332869298 389.4570196829988Q787.8849727628697 402.7149634050191 781.1415288603037 410.72800631393244Q774.3980849577376 418.7618623213105 767.4465100705245 422.1335842725935Q760.4741220848466 425.50530622387663 753.2727900160569 425.50530622387663L753.2727900160569 425.50530622387663Q748.173580892203 425.50530622387663 746.0090186518731 423.25749158968785Q743.8444564115432 421.0096769554992 743.8444564115432 418.0125907765809L743.8444564115432 418.0125907765809Q743.8444564115432 416.65973937637483 744.4272231685551 415.0779438930568Q745.0308030240317 413.51696150820356 745.9257662580143 412.3098017972504L745.9257662580143 412.3098017972504Q746.3836544242379 411.8519136310268 746.7582901966027 412.1641101079975Q747.1329259689675 412.45549348650337 747.1329259689675 412.91338165272697L747.1329259689675 412.91338165272697Q746.5293461134909 414.09972826521545 746.6750378027439 415.6815237485334Q746.8415425904615 417.2633192318514 747.9654499075558 418.67860992745165Q749.0893572246501 420.093900623052 751.2539194649801 421.0721162508933Q753.4184817053099 422.05033187873465 756.8734560504518 422.05033187873465L756.8734560504518 422.05033187873465Q760.4741220848466 422.05033187873465 763.9915357253826 421.1553686447522Q767.5089493659186 420.2604054107697 771.0263630064545 417.78364669346917Q774.5645897454552 415.30688797616864 778.0820033859912 410.8112587077913Q781.5994170265272 406.31562943941395 785.3457747501751 399.0518580752301Q789.0921324738229 391.78808671104633 793.1298735759767 381.44397677408534Q797.1884277765951 371.09986683712447 801.5383653557195 356.86370748726284L801.5383653557195 356.86370748726284Q801.8297487342254 356.11443594253325 801.9754404234784 355.4484167916625Q802.1211321127314 354.76158454232706 802.4333285897021 354.0123129975976L802.4333285897021 354.0123129975976Q799.8733174785427 354.3245094745682 797.3341194658481 354.699145246933Q794.7949214531534 355.07378101929777 792.2349103419941 355.65654777630965L792.2349103419941 355.65654777630965Q791.4856387972645 355.51085608705665 791.8602745696294 354.90727623158006Q792.2349103419941 354.3245094745682 793.2131259698356 353.7209296190916Q794.1913415976769 353.117349763615 795.544192997883 352.59702230199724Q796.8762312996245 352.0766948403795 798.0833910105777 351.9101900526618L798.0833910105777 351.9101900526618Q799.2905507215308 351.7644983634089 800.5601497278781 351.70205906801476Q801.8297487342254 351.6188066741559 803.1826001344316 351.4731149849029L803.1826001344316 351.4731149849029Q808.5731926367915 335.2805243793585 814.7963090777398 322.1682723465911Q821.0194255186882 309.05602031382375 827.9085611105072 299.69012600470427Q834.7976967023262 290.3242316955848 842.1447204603688 285.22502257173085Q849.4917442184114 280.1466265463415 856.9844596657072 280.1466265463415ZM817.1065630073226 389.08238391063395L817.1065630073226 389.08238391063395Q815.3166365393575 389.08238391063395 815.3166365393575 385.7939143532098L815.3166365393575 385.7939143532098Q815.3166365393575 384.8781380207625 815.9202163948341 383.837483097527Q816.5237962503107 382.79682817429153 817.5644511735462 381.73536015259134Q818.6051060967818 380.69470522935586 819.8122658077349 380.0078729800204Q821.0194255186882 379.34185382914967 822.3514638204296 379.34185382914967L822.3514638204296 379.34185382914967Q823.8500069098886 379.34185382914967 823.8500069098886 381.58966846333834L823.8500069098886 381.58966846333834Q823.8500069098886 382.79682817429153 823.183987759018 384.06642718063887Q822.5179686081473 385.3360261869862 821.5397529803058 386.45993350408054Q820.5615373524645 387.5838408211749 819.3543776415113 388.33311236590447Q818.1680310290228 389.08238391063395 817.1065630073226 389.08238391063395ZM871.6576940833277 369.4556320584124L871.6576940833277 369.4556320584124Q873.3019288620397 377.3854225734669 875.861939973199 381.6729208571972Q878.4011379858937 385.9396060424628 882.1474957095415 385.9396060424628L882.1474957095415 385.9396060424628Q883.7917304882537 385.9396060424628 885.2278342823186 385.1903344977332Q886.6431249779189 384.4410629530036 888.287359756631 382.33894000806794L888.287359756631 382.33894000806794Q888.7452479228546 382.04755662956194 889.0366313013606 382.4221924019268Q889.3488277783313 382.79682817429153 889.2031360890783 383.2339032420504L889.2031360890783 383.2339032420504Q887.1010131441426 385.9396060424628 884.7075068207009 387.500588427316Q882.2931873987945 389.08238391063395 879.0047178413704 389.08238391063395L879.0047178413704 389.08238391063395Q874.217705194487 389.08238391063395 871.3663107048218 383.98317478678Q868.5149162151565 378.8839656629261 866.7249897471913 369.1434355814418L866.7249897471913 369.1434355814418Q866.5584849594736 367.9570889689533 867.474261291921 367.6448924919826L867.474261291921 367.6448924919826Q870.1591509938685 368.2484723474592 872.8648537942809 367.72814488584146Q875.5497434962285 367.2078174242237 877.6518664411642 366.0006577132705Q879.7539893860999 364.81431110078205 881.0235883924472 362.85787984509926Q882.2931873987945 360.9014485894166 882.2931873987945 358.5079422659749L882.2931873987945 358.5079422659749Q882.2931873987945 354.76158454232706 878.5468296751467 354.76158454232706L878.5468296751467 354.76158454232706Q873.4684336497573 354.76158454232706 868.9728043813801 359.77754127232225Q864.4771751130027 364.81431110078205 862.229360478814 374.55484118226633L862.229360478814 374.55484118226633Q861.6257806233375 377.094039194961 860.9389483740019 380.1743777677381Q860.2729292231313 383.2339032420504 859.8150410569076 385.3360261869862L859.8150410569076 385.3360261869862Q859.5236576784017 386.5431858979394 859.2322742998957 387.1259526549513Q858.9200778229251 387.7295325104279 857.8794228996896 388.18742067665147L857.8794228996896 388.18742067665147Q856.0686833332599 389.08238391063395 854.7366450315185 389.08238391063395L854.7366450315185 389.08238391063395Q853.5294853205652 389.08238391063395 853.9873734867889 387.7295325104279L853.9873734867889 387.7295325104279Q858.6286944444191 362.7121881558464 866.6417373533325 342.10722067578337Q874.654780262246 321.50225319572047 884.2496186544772 306.745766384241Q893.8444570467086 291.96846647429686 904.0220621959518 283.89298426998937Q914.2204804436598 275.79668896721716 923.2117389804146 275.79668896721716L923.2117389804146 275.79668896721716Q926.5002085378387 275.79668896721716 928.6855838766332 277.0662879735645Q930.8501461169631 278.3358869799118 931.6826700555514 280.2923182355945Q932.4943808956752 282.2279363928126 932.1197451233104 284.64225581471896Q931.7451093509455 287.0357621381606 929.9551828829806 289.4292684616022L929.9551828829806 289.4292684616022Q928.9145279597451 290.1785400063318 928.6023314827744 288.9713802953786L928.6023314827744 288.9713802953786Q929.3516030275039 285.9742941164603 927.187040787174 283.1437127252598Q925.0016654483795 280.2923182355945 919.7567646352727 280.2923182355945L919.7567646352727 280.2923182355945Q913.1798255204243 280.2923182355945 905.7495493685228 285.22502257173085Q898.340086315086 290.1785400063318 890.8473708677903 300.52264994329266Q883.3546554204947 310.86675988025354 876.3822674348169 326.80959330422144Q869.409879449139 342.7732398266541 863.8735952575262 364.81431110078205L863.8735952575262 364.81431110078205Q867.1620648149503 358.3622505767219 871.5120023940747 354.5326404592153Q875.861939973199 350.7238434401733 881.8561123310355 350.7238434401733L881.8561123310355 350.7238434401733Q884.3953103437302 350.7238434401733 885.9771058270483 352.5137699081384Q887.5380882119015 354.3245094745682 887.5380882119015 356.57232410875685L887.5380882119015 356.57232410875685Q887.5380882119015 361.3593367556402 882.98001964813 364.96000279003505Q878.4011379858937 368.5606688244299 871.6576940833277 369.4556320584124ZM919.7567646352727 357.32159565348644L919.7567646352727 357.32159565348644Q919.7567646352727 359.4029054999574 918.1125298565605 361.2136450663872Q916.4682950778484 363.00357153435226 913.6169005881832 364.4396753284173Q910.7655060985179 365.85496602401753 907.1024007687289 367.0621257349707Q903.43929543894 368.2484723474592 899.3807412383214 369.3099403691594L899.3807412383214 369.3099403691594Q899.2350495490684 370.95417514787147 899.1517971552096 372.59840992658366Q899.0893578598156 374.24264470529573 899.0893578598156 376.1990759609784L899.0893578598156 376.1990759609784Q899.0893578598156 379.94543368462627 900.7335926385276 382.48463169732094Q902.3778274172398 385.0446428084802 905.374913596158 385.0446428084802L905.374913596158 385.0446428084802Q908.3719997750761 385.0446428084802 910.9944501816296 383.54609971902113Q913.6169005881832 382.04755662956194 915.7190235331188 379.48754551840267L915.7190235331188 379.48754551840267Q916.3226033885954 379.19616213989667 916.6139867671014 379.63323720765555Q916.926183244072 380.09112537387927 916.6139867671014 380.69470522935586L916.6139867671014 380.69470522935586Q914.0747887544069 384.128866476033 910.2451786369002 386.6056251933334Q906.4363816178582 389.08238391063395 902.2321357279868 389.08238391063395L902.2321357279868 389.08238391063395Q898.340086315086 389.08238391063395 895.8633275977854 386.5431858979394Q893.3865688804849 383.98317478678 893.3865688804849 379.0504704506438L893.3865688804849 379.0504704506438Q893.3865688804849 374.55484118226633 895.0308036591971 369.51807135380653Q896.6958515363739 364.50211462381145 899.3807412383214 360.3186818324047Q902.0864440387338 356.11443594253325 905.6038576792698 353.408733142121Q909.1212713198058 350.7238434401733 913.0133207327066 350.7238434401733L913.0133207327066 350.7238434401733Q915.8647152223718 350.7238434401733 917.8211464780545 352.74271399125024Q919.7567646352727 354.76158454232706 919.7567646352727 357.32159565348644ZM909.8705428645353 354.6158928530742L909.8705428645353 354.6158928530742Q906.4363816178582 354.6158928530742 903.7306788174458 357.6129790319923Q901.0249760170336 360.6100652109106 899.8386294045451 367.0621257349707L899.8386294045451 367.0621257349707Q907.01914837487 366.0006577132705 910.3908703261532 363.9817871621936Q913.7625922774362 361.9629166111168 913.7625922774362 359.4029054999574L913.7625922774362 359.4029054999574Q913.7625922774362 357.32159565348644 912.7219373542007 355.96874425328025Q911.6812824309652 354.6158928530742 909.8705428645353 354.6158928530742ZM962.0281676170987 379.48754551840267L962.0281676170987 379.48754551840267Q962.4652426848577 379.19616213989667 962.9231308510813 379.48754551840267Q963.3810190173049 379.79974199537327 963.2145142295872 380.38250875238515L963.2145142295872 380.38250875238515Q960.6753162168926 383.837483097527 957.5949776441155 386.45993350408054Q954.5354521698032 389.08238391063395 951.8297493693908 389.08238391063395L951.8297493693908 389.08238391063395Q947.1884284117605 389.08238391063395 947.1884284117605 383.08821155279753L947.1884284117605 383.08821155279753Q947.1884284117605 377.9890024289435 948.9783548797255 371.7658859879952Q950.7890944461553 365.56358264551164 953.9318723143265 359.2572138107045L953.9318723143265 359.2572138107045Q954.5354521698032 358.2165588874689 954.5354521698032 357.1550908657687L954.5354521698032 357.1550908657687Q954.5354521698032 355.51085608705665 953.036909080344 355.51085608705665L953.036909080344 355.51085608705665Q947.4798117902665 355.51085608705665 940.8196202815592 363.14926322360526Q934.1594287728519 370.8084834586186 928.4566397935214 387.1259526549513L928.4566397935214 387.1259526549513Q928.1652564150154 388.04172898739847 926.8124050148093 388.5620564490162Q925.4595536146032 389.08238391063395 924.25239390365 389.08238391063395L924.25239390365 389.08238391063395Q922.6081591249379 389.08238391063395 923.0660472911616 387.7295325104279L923.0660472911616 387.7295325104279Q925.6052453038562 381.29828508483246 928.3733873996625 373.20198978206025Q931.1623425939338 365.10569447928805 933.2436524404047 357.1550908657687L933.2436524404047 357.1550908657687Q933.8472322958813 354.3245094745682 932.2029975171693 354.3245094745682L932.2029975171693 354.3245094745682Q930.7044544277101 354.3245094745682 929.205911338251 355.82305256402725Q927.7073682487919 357.32159565348644 926.0631334700797 359.7151019769281L926.0631334700797 359.7151019769281Q925.7509369931091 360.006485355434 925.3763012207444 359.5694102876751Q925.0016654483795 359.1115221214515 925.1681702360972 358.6536339552279L925.1681702360972 358.6536339552279Q926.8124050148093 356.11443594253325 929.6637995044746 353.408733142121Q932.4943808956752 350.7238434401733 935.8036635515641 350.7238434401733L935.8036635515641 350.7238434401733Q939.5500212752119 350.7238434401733 938.3428615642588 355.82305256402725L938.3428615642588 355.82305256402725Q937.7392817087821 359.1115221214515 936.6986267855466 362.7746274512405Q935.6579718623111 366.4585458794941 934.4508121513579 370.059211913889L934.4508121513579 370.059211913889Q936.5529350962936 366.0006577132705 939.404329585959 362.39999167887567Q942.2349109771594 358.8201387429455 945.3152495499365 356.26012763178625Q948.3955881227137 353.7209296190916 951.455113597026 352.2223865296325Q954.5354521698032 350.7238434401733 957.2203418717507 350.7238434401733L957.2203418717507 350.7238434401733Q959.0310814381805 350.7238434401733 960.0092970660219 351.6188066741559Q960.9666995953985 352.5137699081384 960.9666995953985 353.7209296190916L960.9666995953985 353.7209296190916Q960.9666995953985 355.65654777630965 960.071736361416 357.6129790319923L960.071736361416 357.6129790319923Q956.9289584932447 363.315768011323 954.7643962529149 369.51807135380653Q952.5790209141204 375.7411877947548 952.5790209141204 380.98608860786175L952.5790209141204 380.98608860786175Q952.5790209141204 384.7324463315096 954.972527237562 384.7324463315096L954.972527237562 384.7324463315096Q958.1361182041979 384.7324463315096 962.0281676170987 379.48754551840267ZM1005.6316089006663 379.48754551840267L1005.6316089006663 379.48754551840267Q1006.0894970668899 379.19616213989667 1006.5265721346489 379.48754551840267Q1006.9844603008725 379.79974199537327 1006.8387686116196 380.38250875238515L1006.8387686116196 380.38250875238515Q1004.2787575004602 383.837483097527 1001.2192320261478 386.45993350408054Q998.1388934533707 389.08238391063395 995.4331906529583 389.08238391063395L995.4331906529583 389.08238391063395Q990.791869695328 389.08238391063395 990.791869695328 383.08821155279753L990.791869695328 383.08821155279753Q990.791869695328 377.9890024289435 992.6026092617578 371.7658859879952Q994.3925357297228 365.56358264551164 997.5353135978942 359.2572138107045L997.5353135978942 359.2572138107045Q998.1388934533707 358.2165588874689 998.1388934533707 357.1550908657687L998.1388934533707 357.1550908657687Q998.1388934533707 355.51085608705665 996.6403503639116 355.51085608705665L996.6403503639116 355.51085608705665Q991.1040661722986 355.51085608705665 984.4230615651268 363.14926322360526Q977.7628700564196 370.8084834586186 972.060081077089 387.1259526549513L972.060081077089 387.1259526549513Q971.7686976985831 388.04172898739847 970.4158462983769 388.5620564490162Q969.0629948981707 389.08238391063395 967.8766482856822 389.08238391063395L967.8766482856822 389.08238391063395Q966.2116004085054 389.08238391063395 966.669488574729 387.7295325104279L966.669488574729 387.7295325104279Q969.2086865874237 381.29828508483246 971.9976417816949 373.20198978206025Q974.7657838775012 365.10569447928805 976.867906822437 357.1550908657687L976.867906822437 357.1550908657687Q977.4506735794489 354.3245094745682 975.8064388007368 354.3245094745682L975.8064388007368 354.3245094745682Q974.3078957112778 354.3245094745682 972.8093526218186 355.82305256402725Q971.3108095323594 357.32159565348644 969.6665747536473 359.7151019769281L969.6665747536473 359.7151019769281Q969.3751913751414 360.006485355434 969.0005556027766 359.5694102876751Q968.6259198304118 359.1115221214515 968.7716115196647 358.6536339552279L968.7716115196647 358.6536339552279Q970.4158462983769 356.11443594253325 973.2672407880423 353.408733142121Q976.1186352777074 350.7238434401733 979.4071048351316 350.7238434401733L979.4071048351316 350.7238434401733Q983.1534625587794 350.7238434401733 981.9463028478262 355.82305256402725L981.9463028478262 355.82305256402725Q981.3635360908144 359.1115221214515 980.3020680691142 362.7746274512405Q979.2614131458787 366.4585458794941 978.0542534349254 370.059211913889L978.0542534349254 370.059211913889Q980.1563763798613 366.0006577132705 983.0077708695264 362.39999167887567Q985.8591653591918 358.8201387429455 988.9186908335041 356.26012763178625Q991.9990294062812 353.7209296190916 995.0585548805936 352.2223865296325Q998.1388934533707 350.7238434401733 1000.844596253783 350.7238434401733L1000.844596253783 350.7238434401733Q1002.634522721748 350.7238434401733 1003.6127383495894 351.6188066741559Q1004.5909539774308 352.5137699081384 1004.5909539774308 353.7209296190916L1004.5909539774308 353.7209296190916Q1004.5909539774308 355.65654777630965 1003.6751776449835 357.6129790319923L1003.6751776449835 357.6129790319923Q1000.5323997768123 363.315768011323 998.3678375364825 369.51807135380653Q996.182462197688 375.7411877947548 996.182462197688 380.98608860786175L996.182462197688 380.98608860786175Q996.182462197688 384.7324463315096 998.5967816195944 384.7324463315096L998.5967816195944 384.7324463315096Q1001.7395594877655 384.7324463315096 1005.6316089006663 379.48754551840267ZM1037.8502853240375 357.32159565348644L1037.8502853240375 357.32159565348644Q1037.8502853240375 359.4029054999574 1036.2060505453253 361.2136450663872Q1034.5618157666133 363.00357153435226 1031.710421276948 364.4396753284173Q1028.8590267872828 365.85496602401753 1025.1959214574938 367.0621257349707Q1021.5120030292401 368.2484723474592 1017.4742619270862 369.3099403691594L1017.4742619270862 369.3099403691594Q1017.3285702378333 370.95417514787147 1017.2453178439745 372.59840992658366Q1017.1620654501156 374.24264470529573 1017.1620654501156 376.1990759609784L1017.1620654501156 376.1990759609784Q1017.1620654501156 379.94543368462627 1018.8271133272924 382.48463169732094Q1020.4713481060046 385.0446428084802 1023.4684342849228 385.0446428084802L1023.4684342849228 385.0446428084802Q1026.4655204638411 385.0446428084802 1029.0879708703947 383.54609971902113Q1031.710421276948 382.04755662956194 1033.8125442218836 379.48754551840267L1033.8125442218836 379.48754551840267Q1034.3953109788956 379.19616213989667 1034.707507455866 379.63323720765555Q1034.998890834372 380.09112537387927 1034.707507455866 380.69470522935586L1034.707507455866 380.69470522935586Q1032.147496344707 384.128866476033 1028.338699325665 386.6056251933334Q1024.5090892081582 389.08238391063395 1020.3256564167516 389.08238391063395L1020.3256564167516 389.08238391063395Q1016.412793905386 389.08238391063395 1013.9568482865502 386.5431858979394Q1011.4800895692498 383.98317478678 1011.4800895692498 379.0504704506438L1011.4800895692498 379.0504704506438Q1011.4800895692498 374.55484118226633 1013.1243243479619 369.51807135380653Q1014.7685591266741 364.50211462381145 1017.4742619270862 360.3186818324047Q1020.1591516290339 356.11443594253325 1023.6973783680346 353.408733142121Q1027.2147920085706 350.7238434401733 1031.1068414214715 350.7238434401733L1031.1068414214715 350.7238434401733Q1033.9582359111366 350.7238434401733 1035.8938540683548 352.74271399125024Q1037.8502853240375 354.76158454232706 1037.8502853240375 357.32159565348644ZM1027.9640635533 354.6158928530742L1027.9640635533 354.6158928530742Q1024.5090892081582 354.6158928530742 1021.8241995062108 357.6129790319923Q1019.1184967057984 360.6100652109106 1017.9113369948452 367.0621257349707L1017.9113369948452 367.0621257349707Q1025.112669063635 366.0006577132705 1028.484391014918 363.9817871621936Q1031.856112966201 361.9629166111168 1031.856112966201 359.4029054999574L1031.856112966201 359.4029054999574Q1031.856112966201 357.32159565348644 1030.8154580429655 355.96874425328025Q1029.7539900212653 354.6158928530742 1027.9640635533 354.6158928530742ZM1128.0542540700908 275.79668896721716L1128.0542540700908 275.79668896721716Q1131.9671165814564 275.79668896721716 1133.0077715046918 278.79377514613543Q1134.0484264279273 281.79086132505364 1131.9671165814564 286.28649059343104L1131.9671165814564 286.28649059343104Q1130.7599568705032 287.1814538274135 1130.4685734919972 285.8286024272074L1130.4685734919972 285.8286024272074Q1130.7599568705032 283.72647948227166 1129.261413781044 282.5401328697832Q1127.7628706915848 281.33297315883 1125.0571678911726 281.33297315883L1125.0571678911726 281.33297315883Q1119.6665753888128 281.33297315883 1114.1302911971998 285.07933088247785Q1108.573193907122 288.8256886061256 1103.3282930940154 295.5066932132976Q1098.0833922809084 302.1668847220048 1093.150687944772 311.15814325875954Q1088.1971705101712 320.1494017955143 1084.0137377187643 330.63920342172815Q1079.809491828893 341.12900504794203 1076.4377698776098 352.59702230199724Q1073.066047926327 364.06503955605245 1070.9639249813913 375.5954961055018L1070.9639249813913 375.5954961055018Q1070.3603451259146 379.0504704506438 1070.6725416028853 381.6729208571972Q1070.9639249813913 384.2953712637506 1072.774664547821 384.2953712637506L1072.774664547821 384.2953712637506Q1074.418899326533 384.2953712637506 1076.0631341052451 382.5678840911797Q1077.7073688839573 380.84039691860875 1079.0602202841633 378.7382739736731L1079.0602202841633 378.7382739736731Q1079.3516036626693 378.4468905951672 1079.8927442227518 378.7382739736731Q1080.4130716843695 379.0504704506438 1080.2673799951165 379.63323720765555L1080.2673799951165 379.63323720765555Q1079.518108450387 380.98608860786175 1078.1652570501808 382.6303233865738Q1076.8124056499746 384.2953712637506 1075.2306101666568 385.71066195935094Q1073.6696277818035 387.1259526549513 1072.0253930030913 388.1041682827926Q1070.3603451259146 389.08238391063395 1069.0283068241731 389.08238391063395L1069.0283068241731 389.08238391063395Q1066.4682957130137 389.08238391063395 1065.4900800851724 386.91782167030414Q1064.5326775557958 384.7324463315096 1064.8240609343015 381.29828508483246L1064.8240609343015 381.29828508483246Q1064.9697526235545 378.7382739736731 1065.4276407897783 376.4904593394844Q1065.8647158575372 374.24264470529573 1066.4682957130137 371.70344669260106L1066.4682957130137 371.70344669260106Q1065.1154443128075 374.8462245607723 1062.8676296786189 377.76005834583174Q1060.6198150444302 380.69470522935586 1058.2263087209885 383.08821155279753Q1055.8328023975469 385.4817178762392 1053.5017353694993 387.06351335955713Q1051.1914814399165 388.62449574441035 1049.5472466612046 389.08238391063395L1049.5472466612046 389.08238391063395Q1046.9872355500452 389.08238391063395 1044.6769816204624 386.91782167030414Q1042.3459145924148 384.7324463315096 1042.3459145924148 379.94543368462627L1042.3459145924148 379.94543368462627Q1042.3459145924148 374.24264470529573 1044.3023458480975 368.93530459679465Q1046.2379640053157 363.60715138982886 1049.6096859565987 359.5694102876751Q1052.9814079078817 355.51085608705665 1057.414597880865 353.0340973697561Q1061.8269747553834 350.5781517509204 1066.9261838792374 350.5781517509204L1066.9261838792374 350.5781517509204Q1068.5704186579496 350.5781517509204 1069.8400176642967 351.0152268186793Q1071.1096166706443 351.4731149849029 1072.1710846923443 352.2223865296325L1072.1710846923443 352.2223865296325Q1074.855974394292 344.1260912268603 1078.6855845117984 335.2805243793585Q1082.5151946293051 326.4349575318567 1087.0108238976825 317.98483955518446Q1091.50645316606 309.51390848004746 1096.5224098960553 301.87550134349885Q1101.5383666260502 294.21628110848553 1106.866519833016 288.45105283376085Q1112.173859941517 282.6858245590362 1117.564452443877 279.2308502138943Q1122.9758580447015 275.79668896721716 1128.0542540700908 275.79668896721716ZM1052.2321363631522 383.837483097527L1052.2321363631522 383.837483097527Q1053.8763711418642 383.837483097527 1056.2074381699117 381.9643042357031Q1058.5385051979592 380.09112537387927 1060.848759127542 377.094039194961Q1063.1798261555896 374.09695301604273 1065.3443883959194 370.12165120928313Q1067.529763734714 366.1463494025235 1069.0283068241731 361.9629166111168L1069.0283068241731 361.9629166111168Q1069.465381891932 360.4643735216577 1069.9232700581556 359.1115221214515Q1070.3603451259146 357.7586707212453 1070.6725416028853 356.40581932103925L1070.6725416028853 356.40581932103925Q1070.0689617474086 354.6158928530742 1068.4247269686966 353.7833689144857Q1066.7804921899844 352.971658074362 1064.6783692450488 352.971658074362L1064.6783692450488 352.971658074362Q1061.5355913768776 352.971658074362 1058.5385051979592 354.8448369361859Q1055.541419019041 356.71801579800984 1053.2103519909936 360.006485355434Q1050.879284962946 363.315768011323 1049.4639942673457 367.8113972797003Q1048.0487035717454 372.30702654807766 1048.0487035717454 377.6976190504376L1048.0487035717454 377.6976190504376Q1048.0487035717454 380.84039691860875 1049.3183025780927 382.33894000806794Q1050.58790158444 383.837483097527 1052.2321363631522 383.837483097527ZM1116.9816856868651 354.3245094745682L1116.9816856868651 354.3245094745682Q1117.127377376118 353.8666213083446 1117.7309572315949 353.34629384672684Q1118.3137239886066 352.8259663851091 1119.146247927195 352.2223865296325Q1119.9787718657833 351.6188066741559 1120.790482705907 351.24417090179105Q1121.6230066444955 350.8695351294263 1122.0600817122543 350.8695351294263L1122.0600817122543 350.8695351294263Q1123.4129331124605 350.8695351294263 1123.1215497339545 351.9101900526618L1123.1215497339545 351.9101900526618Q1119.8122670780658 361.2136450663872 1116.6694892098944 369.97595952003013Q1113.5267113417233 378.7382739736731 1109.9260453073284 388.18742067665147L1109.9260453073284 388.18742067665147Q1105.8883042051748 398.67722230286535 1101.3094225429384 405.7953019777961Q1096.751353979167 412.91338165272697 1091.7145841507072 417.32575852724545Q1086.698627420712 421.75894850022877 1081.308034918352 423.69456665744684Q1075.9174424159921 425.6509979131295 1070.2146534366616 425.6509979131295L1070.2146534366616 425.6509979131295Q1062.284862921607 425.6509979131295 1058.1638694255944 421.6756961063699Q1054.042875929582 417.7003942996103 1054.042875929582 411.8519136310268L1054.042875929582 411.8519136310268Q1054.042875929582 409.1670239290792 1055.4581666251822 406.16993775016095Q1056.8734573207826 403.1728515712427 1059.8705434997007 400.925036937054L1059.8705434997007 400.925036937054Q1060.3284316659242 400.6128404600833 1060.703067438289 401.2164203155599Q1061.077703210654 401.8200001710365 1060.786319832148 402.1113835495425L1060.786319832148 402.1113835495425Q1058.3720004102415 404.96277803920776 1058.3720004102415 408.5634440736026L1058.3720004102415 408.5634440736026Q1058.3720004102415 414.84899980994504 1061.9726664446364 418.7618623213105Q1065.5733324790313 422.65391173421125 1072.920356237074 422.65391173421125L1072.920356237074 422.65391173421125Q1078.1652570501808 422.65391173421125 1082.5776339246993 421.0096769554992Q1087.0108238976825 419.3446290783224 1090.9653126059775 415.16119628691564Q1094.9406144127372 410.9569503970443 1098.624532840991 403.9221231159723Q1102.2876381707797 396.86648273643556 1106.1796875836806 386.2309894209687L1106.1796875836806 386.2309894209687Q1107.8239223623928 381.29828508483246 1109.4057178457106 377.094039194961Q1110.9875133290286 372.88979330508954 1112.6317481077408 368.3941640367122L1112.6317481077408 368.3941640367122Q1106.92895912841 377.3854225734669 1100.7058426874619 383.08821155279753Q1094.5035393449782 388.79100053212807 1089.6957135996304 389.22807559988695L1089.6957135996304 389.22807559988695Q1087.7600954424122 389.22807559988695 1086.844319109965 387.4381491319219Q1085.9493558759823 385.6274095654921 1085.9493558759823 382.48463169732094L1085.9493558759823 382.48463169732094Q1085.9493558759823 379.79974199537327 1086.552935731459 376.57371173334326Q1087.1565155869357 373.34768147131314 1088.2804229040298 369.8927071261713Q1089.4043302211244 366.4585458794941 1091.1318173936952 362.9411322389581Q1092.8384914678013 359.4029054999574 1094.9406144127372 356.11443594253325L1094.9406144127372 356.11443594253325Q1093.296379634025 357.32159565348644 1091.50645316606 358.73688634908666Q1089.6957135996304 360.152177044687 1088.5093669871417 361.3593367556402L1088.5093669871417 361.3593367556402Q1088.051478820918 361.65072013414607 1087.6768430485533 361.13039267252833Q1087.3022072761885 360.6100652109106 1087.5935906546945 360.152177044687L1087.5935906546945 360.152177044687Q1089.6957135996304 358.07086719821604 1093.296379634025 355.36516439780365Q1096.8970456684199 352.6594615973914 1100.331206915097 350.8695351294263L1100.331206915097 350.8695351294263Q1101.8297500045562 350.8695351294263 1101.5383666260502 352.2223865296325L1101.5383666260502 352.2223865296325Q1099.2905519918615 355.21947270855077 1097.4173731300375 358.88257803833966Q1095.5441942682137 362.5664964665934 1094.1913428680077 366.22960179638227Q1092.8384914678013 369.8927071261713 1092.0892199230718 373.49337316056614Q1091.3399483783423 377.094039194961 1091.3399483783423 379.94543368462627L1091.3399483783423 379.94543368462627Q1091.3399483783423 384.128866476033 1094.1913428680077 384.128866476033L1094.1913428680077 384.128866476033Q1096.5848491914494 384.128866476033 1099.9565711427322 380.9236493124676Q1103.3282930940154 377.6976190504376 1106.7000150452982 373.1187373882014Q1110.0717369965814 368.5606688244299 1112.8606921908527 363.3782073067171Q1115.6288342866587 358.2165588874689 1116.9816856868651 354.3245094745682Z " fill="#ddc6b6" transform="matrix(0.7720443529652393,0,0,0.7720443529652392,0,29.169406960184105)"/></g></svg>